<svg version="1.0" xmlns="http://www.w3.org/2000/svg"
 width="1563.000000pt" height="1563.000000pt" viewBox="0 0 1563.000000 1563.000000"
 preserveAspectRatio="xMidYMid meet">
<path d="M7591 15049 c-240 -28 -520 -133 -723 -270 -105 -72 -251 -205 -343
-314 -159 -188 -249 -338 -512 -854 -218 -426 -325 -616 -461 -816 -68 -99
-82 -115 -99 -115 -7 0 -55 31 -105 68 -210 155 -391 242 -643 309 -82 22
-122 27 -220 27 -139 1 -208 -17 -334 -86 -254 -138 -390 -288 -457 -503 -39
-125 -39 -258 0 -400 105 -387 284 -747 498 -1005 l37 -45 -59 -118 c-121
-246 -136 -303 -257 -955 l-26 -142 23 -128 c32 -169 35 -398 6 -452 -31 -57
-131 -203 -176 -256 -75 -88 -202 -212 -257 -251 -227 -159 -297 -263 -274
-410 19 -121 118 -223 303 -312 77 -37 83 -49 73 -150 -9 -93 -21 -124 -55
-143 -37 -21 -70 -74 -70 -112 0 -15 11 -49 24 -75 12 -25 30 -63 39 -84 20
-45 58 -70 135 -86 31 -7 66 -21 77 -31 11 -10 44 -30 74 -44 54 -25 55 -25
28 -35 -15 -6 -55 -15 -90 -21 -75 -13 -129 -52 -152 -107 -18 -43 -20 -184
-3 -201 7 -7 38 -12 70 -12 l58 0 69 -67 c86 -85 93 -105 96 -318 3 -143 6
-168 30 -239 57 -168 163 -268 335 -312 146 -38 767 17 969 86 71 24 120 19
208 -20 141 -62 322 -275 438 -515 167 -345 308 -888 371 -1430 l5 -40 -161
-144 c-129 -115 -178 -153 -242 -184 -63 -30 -98 -57 -166 -125 -48 -48 -109
-120 -135 -159 -27 -40 -52 -73 -56 -73 -9 0 -35 -20 -114 -85 -120 -100 -192
-250 -170 -357 9 -48 9 -50 -19 -71 -229 -174 -420 -424 -568 -739 -19 -41
-26 -48 -51 -48 -50 0 -86 -53 -98 -145 l-6 -50 -53 -7 c-94 -11 -137 -62
-221 -263 -48 -114 -176 -284 -339 -451 -75 -78 -93 -91 -114 -87 -57 11 -148
-110 -286 -377 -43 -82 -118 -209 -168 -282 -96 -140 -202 -317 -229 -381
l-15 -37 1324 0 1325 0 5 43 c3 23 10 87 16 142 62 588 234 1139 542 1735 102
198 250 474 258 485 5 6 51 96 103 200 178 357 245 539 317 865 65 296 65 440
0 730 -56 253 -68 341 -80 592 -17 349 12 532 120 748 226 453 814 740 1608
786 l122 7 0 2889 0 2888 -44 54 c-130 159 -196 375 -196 635 l0 101 -40 0
c-39 0 -40 -1 -40 -35 0 -41 -23 -55 -94 -55 -91 0 -126 29 -126 103 0 80 32
107 125 107 75 0 95 -12 95 -55 0 -34 1 -35 40 -35 l40 0 0 210 0 210 -40 0
c-39 0 -40 -1 -40 -33 0 -49 -14 -57 -100 -57 -99 0 -115 14 -115 102 0 82 20
98 119 98 81 0 96 -9 96 -57 0 -32 1 -33 40 -33 l40 0 0 210 0 210 -40 0 c-39
0 -40 -1 -40 -35 0 -44 -20 -55 -103 -55 -83 0 -107 17 -114 83 -11 91 24 127
123 127 77 0 94 -11 94 -61 l0 -40 38 3 37 3 5 160 c5 175 13 200 69 248 69
58 68 58 636 55 l521 -3 49 -26 c30 -15 62 -42 79 -67 29 -41 30 -43 34 -207
l5 -165 32 0 c35 0 45 13 45 55 0 35 32 48 107 43 85 -5 107 -26 107 -104 1
-49 -2 -59 -27 -80 -24 -20 -39 -24 -96 -24 -75 0 -87 7 -93 55 -3 27 -7 30
-40 33 l-38 3 -1 -98 c-1 -54 -2 -118 -1 -143 0 -25 1 -75 1 -112 l1 -68 39 0
c40 0 40 0 43 43 l3 42 77 3 c43 2 86 -2 97 -8 44 -23 51 -130 10 -171 -15
-15 -33 -19 -93 -19 -80 0 -92 7 -98 55 -3 27 -7 30 -40 33 -26 2 -38 -1 -39
-10 0 -7 -1 -102 -2 -211 l-2 -197 43 0 c41 0 42 1 42 33 0 48 15 57 91 57 57
0 72 -4 96 -24 24 -21 28 -31 28 -80 0 -77 -22 -99 -108 -104 -82 -5 -105 6
-109 56 -3 35 -5 37 -40 40 -26 2 -38 -1 -38 -10 -2 -77 -11 -263 -16 -298
-18 -146 -86 -309 -182 -434 l-52 -70 2 -2880 3 -2881 105 -7 c582 -39 1037
-184 1325 -425 164 -137 262 -270 351 -478 l18 -40 5 40 6 39 103 -114 c145
-161 159 -194 171 -391 11 -175 33 -264 109 -444 45 -107 46 -113 48 -225 4
-181 20 -214 20 -40 0 90 4 160 12 185 27 84 52 230 52 299 0 158 -63 424
-136 571 -24 50 -68 119 -97 155 -54 67 -153 234 -182 306 -10 27 -15 63 -13
103 l3 63 120 -102 c297 -252 319 -285 381 -560 26 -113 41 -157 51 -147 2 3
-1 15 -7 27 -6 12 -22 76 -35 143 -31 155 -49 209 -95 277 -36 52 -153 171
-231 235 -32 26 -40 41 -58 114 -11 47 -21 110 -21 140 0 74 18 193 30 205 15
15 97 -70 104 -108 5 -24 9 -28 16 -16 8 12 18 7 55 -30 65 -63 174 -194 222
-265 84 -125 131 -250 144 -380 l8 -80 -4 90 c-8 192 -107 382 -320 611 l-84
92 18 38 c10 22 21 56 25 76 5 25 22 52 54 85 26 27 71 84 100 127 35 53 54
73 57 62 3 -9 8 -24 11 -33 4 -10 8 -108 9 -218 2 -177 5 -205 23 -245 23 -51
71 -129 72 -117 0 11 -29 68 -45 87 -29 35 -44 138 -38 263 l6 122 44 49 c25
28 51 63 59 78 16 31 34 29 34 -3 0 -10 4 -19 9 -19 5 0 15 -15 22 -32 40 -97
204 -358 225 -358 3 0 -7 17 -23 38 -47 61 -79 114 -149 246 l-65 125 25 73
c56 161 102 383 112 538 6 89 2 122 -31 320 l-6 35 53 -55 c60 -63 47 -42 -25
39 -26 29 -46 56 -44 60 1 3 16 34 32 68 17 34 33 62 37 63 10 0 63 -143 89
-240 18 -68 24 -123 28 -270 l6 -185 9 98 c17 196 -18 411 -95 589 -18 40 -29
84 -29 110 0 148 -85 378 -226 610 -49 82 -54 95 -43 113 92 144 116 206 132
326 13 105 -4 230 -54 385 -115 360 -347 596 -737 748 -50 20 -96 36 -101 36
-20 0 -207 62 -228 76 -13 8 -23 22 -23 32 0 9 19 64 41 122 22 58 49 128 59
155 10 28 47 122 83 210 339 835 398 997 461 1253 45 182 57 273 63 462 9 295
-28 478 -142 715 -93 192 -205 344 -395 535 -340 342 -759 634 -1292 901 -628
315 -1300 523 -1867 579 -120 12 -414 11 -520 -1z"/>
<path d="M12431 7385 c1 -19 18 -51 18 -35 0 8 -4 22 -9 30 -5 8 -9 11 -9 5z"/>
<path d="M12480 6105 c13 -14 26 -25 28 -25 3 0 -5 11 -18 25 -13 14 -26 25
-28 25 -3 0 5 -11 18 -25z"/>
<path d="M12530 6051 c0 -5 7 -15 17 -22 15 -13 15 -12 4 9 -12 23 -21 28 -21
13z"/>
<path d="M12150 5936 c0 -8 42 -76 46 -76 3 0 -5 18 -16 40 -18 35 -30 49 -30
36z"/>
<path d="M12217 5809 c4 -13 8 -18 11 -10 2 7 -1 18 -6 23 -8 8 -9 4 -5 -13z"/>
<path d="M12282 5600 c0 -14 2 -19 5 -12 2 6 2 18 0 25 -3 6 -5 1 -5 -13z"/>
<path d="M12183 5235 c0 -22 2 -30 4 -17 2 12 2 30 0 40 -3 9 -5 -1 -4 -23z"/>
<path d="M11441 5155 c-1 -78 21 -174 73 -315 40 -106 63 -189 77 -271 20
-120 46 -200 71 -215 11 -6 11 -5 0 8 -20 26 -40 106 -47 192 -8 93 -25 162
-101 406 -78 246 -72 231 -73 195z"/>
<path d="M12055 5090 c11 -35 33 -78 45 -85 5 -3 -2 18 -17 47 -30 62 -38 73
-28 38z"/>
<path d="M12110 4985 c0 -5 5 -17 10 -25 5 -8 10 -10 10 -5 0 6 -5 17 -10 25
-5 8 -10 11 -10 5z"/>
<path d="M11457 4774 c3 -22 14 -77 25 -124 11 -47 27 -121 36 -165 8 -44 17
-74 19 -68 3 7 -5 56 -16 110 -52 245 -59 274 -64 280 -4 3 -4 -12 0 -33z"/>
<path d="M12221 4714 c0 -11 3 -14 6 -6 3 7 2 16 -1 19 -3 4 -6 -2 -5 -13z"/>
<path d="M11562 4325 c0 -11 4 -31 8 -45 6 -20 8 -21 8 -5 0 11 -4 31 -8 45
-6 20 -8 21 -8 5z"/>
<path d="M11371 4198 c-1 -15 4 -30 9 -33 12 -7 12 12 0 40 -8 18 -9 17 -9 -7z"/>
<path d="M11621 4074 c0 -11 3 -14 6 -6 3 7 2 16 -1 19 -3 4 -6 -2 -5 -13z"/>
<path d="M11861 4080 c0 -14 28 -72 29 -59 0 4 -7 22 -15 40 -8 19 -14 27 -14
19z"/>
<path d="M11330 3656 c0 -8 78 -86 86 -86 3 0 -11 19 -32 43 -36 40 -54 55
-54 43z"/>
</g>
</svg>
